<svg width="50" height="50" viewBox="0 0 50 50" fill="none" xmlns="http://www.w3.org/2000/svg">
<rect width="50" height="50" fill="white"/>
<path fill-rule="evenodd" clip-rule="evenodd" d="M43 22.6167C42.0523 22.693 41.7255 23.7496 41.5185 24.4032C41.2898 25.144 40.963 25.9065 40.2876 26.4403C39.1002 27.388 35.7124 26.8324 33.7516 26.4076C33.3704 28.0742 33.1634 29.3923 33.1634 30.4054C33.1634 30.9283 33.2179 31.3422 33.3486 31.6908C33.3813 31.7562 33.9477 31.9413 33.915 32.0067C33.8932 32.2355 33.6972 32.3553 33.3813 32.3553C33.2941 32.3553 33.1852 32.3335 33.1634 32.2572C32.8584 31.7344 32.7277 30.8411 32.7277 29.5993C32.7277 28.6734 32.8039 27.5405 32.9891 26.2333C32.5425 26.1243 32.2593 26.0699 32.0414 26.0263C30.3529 25.7322 28.5011 25.3727 26.4858 24.9697C24.7538 26.5056 22.6732 28.0198 20.2222 29.4904C16.7364 31.571 13.8388 32.584 11.573 32.6058C9.30719 32.6276 8 31.4294 8 29.5339C8 28.706 8.25054 27.791 8.70806 26.7997C9.56863 25.0132 10.9521 23.913 12.9455 23.4773C13.7625 23.2921 14.7647 23.2267 15.9739 23.2267C16.7291 23.2267 17.5316 23.2558 18.3813 23.3139C18.8751 22.1665 19.5287 20.7903 20.342 19.1853C22.2375 15.4962 23.2106 13.1323 23.2614 12.0938C23.2614 12.0503 23.2614 11.9849 23.2941 11.8433V11.5274C23.2941 10.8411 22.9129 10.5143 22.0959 10.5143C21.9651 10.5143 21.78 10.5143 21.5839 10.5361C19.3399 10.8193 17.1285 11.9196 14.9717 13.8368C12.9673 15.6341 11.8889 17.2355 11.7255 18.706C11.671 19.3487 11.8562 19.73 12.2375 19.9152C12.3464 19.9588 12.5643 19.9914 12.8584 20.035C13.0545 20.0568 13.1307 20.1222 13.1307 20.1984C13.1307 20.3291 12.9673 20.4272 12.7277 20.4708C12.5861 20.4708 10.9956 20.6015 11.159 18.6298C11.3987 16.8433 12.6187 14.9914 14.8627 13.1069C17.0741 11.2551 19.2091 10.2202 21.2898 10.0132C21.9978 9.94787 22.6405 10.1222 23.207 10.5906C23.7734 11.0263 24.0784 11.5492 24.0458 12.2137C24.024 13.2921 23.098 15.6341 21.3442 19.2289C20.5526 20.8629 19.9063 22.25 19.4052 23.3901C20.3638 23.4773 21.3842 23.5971 22.4662 23.7496C24.8845 21.2224 26.9651 19.218 28.6972 17.7365C32.8039 14.2507 36.1264 12.5078 38.719 12.5078C39.2092 12.5078 39.634 12.5623 40.0915 12.6712C40.2876 12.7692 40.4183 12.8128 40.4183 12.8782C40.4183 12.9653 40.2876 12.9653 40.0915 12.9217C39.7429 12.8782 39.4161 12.8346 39.1002 12.8346C37.2048 12.8346 34.8845 13.815 32.1503 15.7431C30.1242 17.1483 27.7168 19.1853 25.0153 21.8651C24.3689 22.5187 23.7226 23.1723 23.0763 23.8259C24.1438 23.9856 25.2731 24.1745 26.4641 24.3923C27.5171 23.4555 28.9731 22.0357 30.8322 20.1331C32.8911 18.0416 34.4815 16.3204 35.5381 14.9479C35.6144 14.8825 35.756 14.828 35.8867 14.828C36.1917 14.828 36.5076 14.9261 36.9216 15.1548C37.2919 15.3618 37.488 15.5034 37.4336 15.6341C36.5076 18.0416 35.7778 19.828 35.3529 21.0481C34.5359 23.2703 34.0566 24.9261 33.8388 25.9501C33.8678 25.9573 33.8932 25.9646 33.915 25.9718C33.915 25.9864 33.915 25.9973 33.915 26.0045C33.9877 26.0263 34.0566 26.0445 34.122 26.059C35.6253 26.4729 38.6427 26.876 40.0261 25.9936C40.7015 25.5579 41.0937 24.8063 41.3442 24.1418C41.5948 23.4773 41.9107 22.5949 42.8911 22.5731C42.6623 22.4206 42.2048 22.3771 41.9434 22.486C41.6166 22.6167 41.4314 22.9217 41.268 23.1832C40.9521 23.706 40.7451 24.2725 40.4401 24.7845C40.1242 25.3291 39.6231 25.7758 38.8824 25.8738C38.1525 25.9718 37.2919 25.6668 36.8453 25.1657C36.061 24.2834 36.573 22.7365 36.9869 21.7888C37.2157 21.266 37.5425 20.6777 37.7168 20.144C37.8148 19.8498 37.8802 19.5557 37.8693 19.2507C37.8693 19.1091 37.8475 18.9348 37.793 18.8041C37.7059 18.5971 37.6623 18.5753 37.5316 18.401C38.5991 18.8477 38.8279 19.9697 38.6645 20.8738C38.5882 21.3313 38.5011 21.7562 38.3922 22.2137C38.2723 22.7257 38.2179 23.1723 38.3377 23.6952C38.4357 24.12 38.8061 24.6211 39.3834 24.5775C39.8519 24.5339 40.2658 23.9566 40.4946 23.6516C40.7451 23.3139 41.1264 22.7692 41.4641 22.5078C41.6928 22.3444 41.9869 22.2899 42.281 22.3226C42.4989 22.3553 42.8802 22.4642 43 22.6167ZM25.8976 24.8716C24.7865 24.6392 23.6935 24.4468 22.6187 24.2943C21.5403 25.3945 20.4619 26.5056 19.3725 27.5949C19.0784 27.8999 18.7516 28.0307 18.4575 28.0307C17.7495 28.0307 17.2593 27.2572 17.2919 26.7235C17.35 26.0771 17.6405 25.1149 18.1634 23.8368C17.3863 23.7932 16.6202 23.7714 15.8649 23.7714C14.6231 23.7714 13.5991 23.8477 12.8148 24.0002C11.1373 24.327 9.9281 25.2856 9.16558 26.9413C8.81699 27.7148 8.65359 28.4991 8.65359 29.2507C8.65359 30.0786 8.87146 30.7649 9.35076 31.2986C9.89542 31.8651 10.658 32.1919 11.6819 32.1701C14.0349 32.1265 16.7908 31.157 20.0044 29.2071C21.976 28.0198 23.9477 26.5492 25.8976 24.8716ZM19.1765 23.9021C18.6318 25.1875 18.2941 26.1135 18.1852 26.6799C18.1525 26.8869 18.1525 27.1156 18.1852 27.3226C18.2397 27.6276 18.3486 27.7365 18.512 27.7365C18.6427 27.7365 18.8606 27.6276 19.0784 27.3662C20.1097 26.2405 21.0937 25.1875 22.0305 24.2071C21.0646 24.0764 20.1133 23.9747 19.1765 23.9021ZM26.9978 24.5339C29.0566 25.0568 31.1046 25.4925 33.1089 25.8193C33.3268 24.0002 34.2418 20.9609 35.8867 16.669C35.9194 16.5492 35.9412 16.4402 35.9412 16.3749C35.9412 16.1352 35.8649 16.0045 35.7015 16.0045C35.5381 16.0045 35.4292 16.0917 35.2658 16.2333C32.5425 19.3052 29.7865 22.0612 26.9978 24.5339Z" fill="url(#paint0_radial_61_21)"/>
<path d="M7.48207 34.2117L4.66837 38.6036H4.05513L3 34.2117H3.64931L4.49703 37.828L6.82373 34.2117H7.48207Z" fill="url(#paint1_linear_61_21)"/>
<path d="M7.42835 35.276H8.03257L7.37424 38.6037H6.77002L7.42835 35.276ZM7.52755 34.2749C7.52755 34.0405 7.70792 33.8511 7.96043 33.8511C8.17686 33.8511 8.34821 34.0134 8.34821 34.2028C8.34821 34.4643 8.15883 34.6357 7.90632 34.6357C7.68988 34.6357 7.52755 34.4733 7.52755 34.2749Z" fill="url(#paint2_linear_61_21)"/>
<path d="M10.6661 35.249L10.5488 35.8352C10.4947 35.8262 10.4587 35.8262 10.3955 35.8262C9.72818 35.8262 9.29531 36.1779 9.142 36.9445L8.80832 38.6038H8.2041L8.86243 35.2761H9.4396L9.34942 35.7721C9.64702 35.4023 10.0709 35.249 10.6661 35.249Z" fill="url(#paint3_linear_61_21)"/>
<path fill-rule="evenodd" clip-rule="evenodd" d="M14.2271 35.2761L13.659 38.1529C13.4155 39.3523 12.7752 39.8573 11.6659 39.8573C11.0347 39.8573 10.5026 39.686 10.1509 39.3884L10.4846 38.9194C10.7371 39.1629 11.188 39.3253 11.711 39.3253C12.4956 39.3253 12.8924 38.9645 13.0367 38.2431L13.0818 38.0086C12.7842 38.2972 12.3784 38.4685 11.8824 38.4685C10.9986 38.4685 10.4034 37.9545 10.4034 37.1068C10.4034 36.0607 11.188 35.249 12.2972 35.249C12.8383 35.249 13.3163 35.4474 13.5327 35.8893L13.659 35.2761H14.2271ZM13.2982 36.6378C13.2982 36.1058 12.9375 35.7721 12.3062 35.7721C11.5487 35.7721 11.0076 36.3222 11.0076 37.0707C11.0076 37.6118 11.3774 37.9365 11.9996 37.9365C12.7572 37.9365 13.2982 37.3954 13.2982 36.6378Z" fill="url(#paint4_linear_61_21)"/>
<path d="M15.0573 35.2759H15.6615L15.0031 38.6037H14.3989L15.0573 35.2759ZM15.923 33.9773H16.7076L15.5623 34.7889H14.9761L15.923 33.9773Z" fill="url(#paint5_linear_61_21)"/>
<path d="M19.4045 36.3493C19.4045 36.4755 19.3865 36.6018 19.3594 36.737L18.9897 38.6038H18.3944L18.7642 36.737C18.7822 36.6378 18.7913 36.5477 18.7913 36.4665C18.7913 36.0336 18.5387 35.7901 18.0247 35.7901C17.3754 35.7901 16.9335 36.1328 16.7892 36.8453L16.4375 38.6038H15.8423L16.5006 35.2761H17.0778L16.9966 35.709C17.3032 35.3933 17.7181 35.249 18.196 35.249C18.9446 35.249 19.4045 35.6458 19.4045 36.3493Z" fill="url(#paint6_linear_61_21)"/>
<path d="M20.4503 35.276H21.0545L20.3962 38.6037H19.792L20.4503 35.276ZM20.5585 34.2749C20.5585 34.0405 20.7299 33.8511 20.9914 33.8511C21.2079 33.8511 21.3702 34.0134 21.3702 34.2028C21.3702 34.4643 21.1898 34.6357 20.9283 34.6357C20.7119 34.6357 20.5585 34.4733 20.5585 34.2749Z" fill="url(#paint7_linear_61_21)"/>
<path fill-rule="evenodd" clip-rule="evenodd" d="M25.0228 35.2761L24.3644 38.6038H23.7873L23.8684 38.198C23.5708 38.4776 23.174 38.6399 22.696 38.6399C21.8483 38.6399 21.2261 38.0988 21.2261 37.206C21.2261 36.0607 22.0287 35.249 23.1109 35.249C23.679 35.249 24.0939 35.4564 24.3013 35.8442L24.4185 35.2761H25.0228ZM24.1209 36.71C24.1209 36.1238 23.7692 35.7721 23.1379 35.7721C22.3894 35.7721 21.8393 36.3583 21.8393 37.1789C21.8393 37.7651 22.191 38.1168 22.8313 38.1168C23.5798 38.1168 24.1209 37.5306 24.1209 36.71Z" fill="url(#paint8_linear_61_21)"/>
<path fill-rule="evenodd" clip-rule="evenodd" d="M29.7028 37.5033H27.3581L26.6637 38.6036H25.9873L28.8551 34.2117H29.4774L30.5866 38.6036H29.9643L29.7028 37.5033ZM29.5766 36.9983L29.0625 34.8339L27.6827 36.9983H29.5766Z" fill="url(#paint9_linear_61_21)"/>
<path d="M33.3021 35.249L33.1939 35.8352C33.1398 35.8262 33.0947 35.8262 33.0315 35.8262C32.3732 35.8262 31.9313 36.1779 31.778 36.9445L31.4533 38.6038H30.8491L31.5075 35.2761H32.0846L31.9854 35.7721C32.292 35.4023 32.7069 35.249 33.3021 35.249Z" fill="url(#paint10_linear_61_21)"/>
<path d="M35.5201 35.249L35.4028 35.8352C35.3487 35.8262 35.3127 35.8262 35.2495 35.8262C34.5822 35.8262 34.1493 36.1779 33.996 36.9445L33.6623 38.6038H33.0581L33.7164 35.2761H34.2936L34.2034 35.7721C34.501 35.4023 34.9249 35.249 35.5201 35.249Z" fill="url(#paint11_linear_61_21)"/>
<path d="M39.0732 35.2759L38.4149 38.6036H37.8377L37.9189 38.1798C37.6123 38.4864 37.1974 38.6397 36.7285 38.6397C35.998 38.6397 35.5381 38.2339 35.5381 37.5214C35.5381 37.4042 35.5471 37.2779 35.5742 37.1427L35.9439 35.2759H36.5481L36.1784 37.1517C36.1603 37.2509 36.1423 37.3411 36.1423 37.4312C36.1423 37.8551 36.3948 38.0986 36.9089 38.0986C37.5311 38.0986 37.973 37.7469 38.1173 37.0435L38.469 35.2759H39.0732Z" fill="url(#paint12_linear_61_21)"/>
<path fill-rule="evenodd" clip-rule="evenodd" d="M43.3114 33.9507L42.3825 38.6041H41.8053L41.8865 38.1983C41.5889 38.4778 41.1921 38.6402 40.7141 38.6402C39.8664 38.6402 39.2441 38.0991 39.2441 37.2063C39.2441 36.061 40.0468 35.2493 41.129 35.2493C41.6971 35.2493 42.1119 35.4567 42.3284 35.8535L42.7071 33.9507H43.3114ZM42.139 36.7103C42.139 36.1241 41.7873 35.7724 41.156 35.7724C40.4075 35.7724 39.8574 36.3586 39.8574 37.1792C39.8574 37.7654 40.2091 38.1171 40.8494 38.1171C41.5979 38.1171 42.139 37.5309 42.139 36.7103Z" fill="url(#paint13_linear_61_21)"/>
<path fill-rule="evenodd" clip-rule="evenodd" d="M46.9998 35.2761L46.3415 38.6038H45.7643L45.8455 38.198C45.5569 38.4776 45.1511 38.6399 44.6731 38.6399C43.8254 38.6399 43.2031 38.0988 43.2031 37.206C43.2031 36.0607 44.0058 35.249 45.0879 35.249C45.6561 35.249 46.0709 35.4564 46.2874 35.8442L46.3956 35.2761H46.9998ZM46.107 36.71C46.107 36.1238 45.7463 35.7721 45.115 35.7721C44.3665 35.7721 43.8164 36.3583 43.8164 37.1789C43.8164 37.7651 44.1771 38.1168 44.8084 38.1168C45.5569 38.1168 46.107 37.5306 46.107 36.71Z" fill="url(#paint14_linear_61_21)"/>
<defs>
<radialGradient id="paint0_radial_61_21" cx="0" cy="0" r="1" gradientUnits="userSpaceOnUse" gradientTransform="translate(25.5034 21.3009) scale(14.73)">
<stop stop-color="#EAB963"/>
<stop offset="1" stop-color="#7D5C34"/>
</radialGradient>
<linearGradient id="paint1_linear_61_21" x1="3.00054" y1="34.2137" x2="7.4781" y2="34.2137" gradientUnits="userSpaceOnUse">
<stop stop-color="#8A5831"/>
<stop offset="0.732" stop-color="#B38C51"/>
</linearGradient>
<linearGradient id="paint2_linear_61_21" x1="6.7702" y1="33.8563" x2="8.34424" y2="33.8563" gradientUnits="userSpaceOnUse">
<stop stop-color="#8A5831"/>
<stop offset="0.732" stop-color="#B38C51"/>
</linearGradient>
<linearGradient id="paint3_linear_61_21" x1="8.20645" y1="35.2487" x2="10.6647" y2="35.2487" gradientUnits="userSpaceOnUse">
<stop stop-color="#8A5831"/>
<stop offset="0.732" stop-color="#B38C51"/>
</linearGradient>
<linearGradient id="paint4_linear_61_21" x1="10.1495" y1="35.2487" x2="14.2258" y2="35.2487" gradientUnits="userSpaceOnUse">
<stop stop-color="#8A5831"/>
<stop offset="0.732" stop-color="#B38C51"/>
</linearGradient>
<linearGradient id="paint5_linear_61_21" x1="14.402" y1="33.9817" x2="16.7035" y2="33.9817" gradientUnits="userSpaceOnUse">
<stop stop-color="#8A5831"/>
<stop offset="0.732" stop-color="#B38C51"/>
</linearGradient>
<linearGradient id="paint6_linear_61_21" x1="15.8386" y1="35.2487" x2="19.4005" y2="35.2487" gradientUnits="userSpaceOnUse">
<stop stop-color="#8A5831"/>
<stop offset="0.732" stop-color="#B38C51"/>
</linearGradient>
<linearGradient id="paint7_linear_61_21" x1="19.7957" y1="33.8563" x2="21.3697" y2="33.8563" gradientUnits="userSpaceOnUse">
<stop stop-color="#8A5831"/>
<stop offset="0.732" stop-color="#B38C51"/>
</linearGradient>
<linearGradient id="paint8_linear_61_21" x1="21.2258" y1="35.2487" x2="25.0199" y2="35.2487" gradientUnits="userSpaceOnUse">
<stop stop-color="#8A5831"/>
<stop offset="0.732" stop-color="#B38C51"/>
</linearGradient>
<linearGradient id="paint9_linear_61_21" x1="25.9854" y1="34.2137" x2="30.5884" y2="34.2137" gradientUnits="userSpaceOnUse">
<stop stop-color="#8A5831"/>
<stop offset="0.732" stop-color="#B38C51"/>
</linearGradient>
<linearGradient id="paint10_linear_61_21" x1="30.847" y1="35.2487" x2="33.3052" y2="35.2487" gradientUnits="userSpaceOnUse">
<stop stop-color="#8A5831"/>
<stop offset="0.732" stop-color="#B38C51"/>
</linearGradient>
<linearGradient id="paint11_linear_61_21" x1="33.0604" y1="35.2487" x2="35.5186" y2="35.2487" gradientUnits="userSpaceOnUse">
<stop stop-color="#8A5831"/>
<stop offset="0.732" stop-color="#B38C51"/>
</linearGradient>
<linearGradient id="paint12_linear_61_21" x1="35.5375" y1="35.2798" x2="39.0744" y2="35.2798" gradientUnits="userSpaceOnUse">
<stop stop-color="#8A5831"/>
<stop offset="0.732" stop-color="#B38C51"/>
</linearGradient>
<linearGradient id="paint13_linear_61_21" x1="39.2435" y1="33.9508" x2="43.3071" y2="33.9508" gradientUnits="userSpaceOnUse">
<stop stop-color="#8A5831"/>
<stop offset="0.732" stop-color="#B38C51"/>
</linearGradient>
<linearGradient id="paint14_linear_61_21" x1="43.2071" y1="35.2487" x2="47.0012" y2="35.2487" gradientUnits="userSpaceOnUse">
<stop stop-color="#8A5831"/>
<stop offset="0.732" stop-color="#B38C51"/>
</linearGradient>
</defs>
</svg>
