<svg width="29" height="29" viewBox="0 0 29 29" fill="none" xmlns="http://www.w3.org/2000/svg">
<path d="M11.2316 9.24081C11.4501 8.19463 10.761 7.38633 10.2388 6.52054C9.94379 6.04332 9.64875 5.56611 9.35372 5.08889C10.1516 4.47803 10.9835 3.9115 11.7866 3.26152C13.0721 2.27736 11.5789 0.326917 10.2594 1.26674C9.46673 1.83847 8.66882 2.44932 7.91004 3.06537C7.0173 1.9911 5.96284 0.935178 4.66871 0.484589C3.79465 0.16942 2.94478 1.1716 3.56083 1.93037C4.30743 2.9056 5.14788 3.77381 5.89968 4.70991C4.6481 5.73839 3.14613 6.85309 2.3565 8.30131C1.99424 8.93019 2.7928 9.51409 3.3379 9.30771C4.76192 8.77999 6.02909 7.63411 7.23116 6.6787C7.52099 7.19505 7.81083 7.7114 8.06154 8.22256C8.18689 8.47814 8.63083 9.33353 8.63602 9.29439C9.64648 10.9816 11.0442 10.0522 11.2316 9.24081Z" fill="#E81CFF"/>
<path d="M26.0298 3.36074C25.2371 3.93246 24.4391 4.54332 23.6804 5.15937C22.7876 4.08509 21.7332 3.02917 20.439 2.57858C19.565 2.26341 18.7151 3.26559 19.3312 4.02437C20.0778 4.99959 20.9182 5.86781 21.67 6.8039C20.4184 7.83238 18.9165 8.94709 18.1268 10.3953C17.7646 11.0242 18.5631 11.6081 19.1082 11.4017C20.5322 10.874 21.7994 9.72811 23.0015 8.77269C23.2913 9.28905 23.5812 9.8054 23.8319 10.3166C25.0567 12.7889 26.8145 12.1462 27.0019 11.3348C27.2205 10.2886 26.5313 9.48032 26.0092 8.61454C25.7141 8.13732 25.4191 7.6601 25.124 7.18288C25.922 6.57203 26.7538 6.0055 27.5569 5.35551C28.8033 4.36616 27.3101 2.41572 26.0298 3.36074Z" fill="#E81CFF"/>
<path d="M16.9394 19.0383C17.8325 20.71 17.8805 22.7473 16.3526 24.0576C14.9133 25.3001 12.2263 25.1425 10.7414 24.0294C9.40261 23.0154 9.39368 20.9832 9.82592 19.5274C10.5082 17.3879 11.9766 16.8263 14.0163 16.46C14.3006 16.4181 14.4648 16.0815 14.2612 15.8155C13.4962 14.6786 12.0276 14.6428 10.8591 15.0452C9.44028 15.5338 8.4079 16.7108 7.79039 18.0624C6.63087 20.4969 6.82053 23.8672 8.96063 25.7442C11.1686 27.7099 15.1965 27.966 17.5746 26.2508C20.1353 24.3608 20.6864 20.8101 19.2188 18.0667C18.4459 16.6897 16.1665 17.6614 16.9394 19.0383Z" fill="#E81CFF"/>
<path d="M16.0047 17.6797C16.4352 17.7369 16.7794 17.5437 17.0558 17.2618C17.0558 17.2618 17.061 17.2227 17.1001 17.2278C17.3374 16.9408 17.3997 16.4712 17.2456 16.1321C17.0967 15.754 16.7653 15.5507 16.3792 15.4596L16.34 15.4544C15.9539 15.3633 15.5262 15.5853 15.289 15.8723C15.0466 16.1986 14.9894 16.629 15.1383 17.0072C15.2872 17.3854 15.6134 17.6278 16.0047 17.6797Z" fill="#E81CFF"/>
</svg>
