<svg width="90" height="48" viewBox="0 0 90 48" fill="none" xmlns="http://www.w3.org/2000/svg">
<path d="M12.52 14.288C12.84 13.52 13.5227 13.0187 14.568 12.784C15.6347 12.5493 16.52 12.816 17.224 13.584C17.928 14.3307 18.0027 15.5147 17.448 17.136C17.384 17.3067 16.968 18.2667 16.2 20.016C15.4533 21.7653 15.0693 22.9813 15.048 23.664C15.048 24.304 15.1867 24.7733 15.464 25.072C15.7627 25.3493 16.1573 25.3813 16.648 25.168C17.1387 24.9547 17.6187 24.496 18.088 23.792C18.5573 23.1093 18.9947 22.352 19.4 21.52C19.912 20.4533 20.2853 19.4187 20.52 18.416C20.7547 17.392 20.9147 16.3893 21 15.408C21.1067 14.4267 21.192 13.7653 21.256 13.424C21.4907 12.336 22.0987 11.6 23.08 11.216C24.104 10.8107 24.9787 11.0027 25.704 11.792C26.6853 12.8587 26.9307 14.6827 26.44 17.264C26.376 17.6053 26.2587 18.192 26.088 19.024C25.9387 19.8347 25.8427 20.3573 25.8 20.592C25.7787 20.8053 25.704 21.2213 25.576 21.84C25.4693 22.4587 25.4053 22.8533 25.384 23.024C25.384 23.1947 25.352 23.5253 25.288 24.016C25.224 24.4853 25.192 24.8267 25.192 25.04C25.2133 25.232 25.2133 25.52 25.192 25.904C25.192 26.288 25.2027 26.6293 25.224 26.928C25.2667 27.2267 25.2987 27.568 25.32 27.952C25.3627 28.3147 25.4267 28.72 25.512 29.168C25.6827 30.32 25.4907 31.2267 24.936 31.888C24.3813 32.5493 23.6773 32.8693 22.824 32.848C22.056 32.8267 21.4053 32.5707 20.872 32.08C20.3387 31.568 20.1253 30.8427 20.232 29.904C20.2747 29.4347 20.424 28.7947 20.68 27.984C20.936 27.152 21.1387 26.48 21.288 25.968C21.4373 25.4347 21.4373 25.1467 21.288 25.104C20.8827 24.9547 20.5093 25.1253 20.168 25.616C19.848 26.1067 19.4213 27.0773 18.888 28.528C18.6747 29.1253 18.3333 29.6267 17.864 30.032C17.3947 30.4373 16.8613 30.7253 16.264 30.896C15.688 31.0667 15.0907 31.0987 14.472 30.992C13.8533 30.8853 13.288 30.6507 12.776 30.288C12.2853 29.9253 11.88 29.3707 11.56 28.624C11.24 27.8773 11.08 26.992 11.08 25.968C11.1013 25.0933 11.24 24.0693 11.496 22.896C11.752 21.7227 11.8907 20.9013 11.912 20.432C11.912 19.7707 11.912 19.1627 11.912 18.608C11.912 18.032 11.912 17.52 11.912 17.072C11.9333 16.624 11.9867 16.1653 12.072 15.696C12.1573 15.2267 12.3067 14.7573 12.52 14.288ZM16.392 37.488C15.7093 37.616 14.888 37.6053 13.928 37.456C12.968 37.2853 12.104 37.136 11.336 37.008C10.568 36.88 9.512 36.9333 8.168 37.168C7.86933 37.2533 7.41067 37.4133 6.792 37.648C6.19467 37.8613 5.64 38.0213 5.128 38.128C4.616 38.256 4.136 38.2987 3.688 38.256C3.02667 38.1707 2.46133 37.9467 1.992 37.584C1.544 37.2213 1.224 36.7733 1.032 36.24C0.861333 35.472 0.776 34.7787 0.776 34.16C0.754667 33.52 0.84 32.7627 1.032 31.888C1.224 31.0133 1.42667 30.2453 1.64 29.584C1.85333 28.9013 2.07733 28.144 2.312 27.312C2.54667 26.4587 2.70667 25.7547 2.792 25.2C2.96267 24.3253 3.05867 23.4613 3.08 22.608C3.12267 21.7333 3.13333 21.04 3.112 20.528C3.09067 20.016 3.03733 19.248 2.952 18.224C2.86667 17.2 2.80267 16.432 2.76 15.92C2.65333 14.1493 3.176 12.88 4.328 12.112C5.48 11.344 6.65333 11.3227 7.848 12.048C9.064 12.7733 9.68267 14.0533 9.704 15.888C9.704 17.4453 9.48 19.2053 9.032 21.168C8.79733 22.1493 8.34933 23.568 7.688 25.424C7.02667 27.2587 6.57867 28.592 6.344 29.424C6.32267 29.5307 6.28 29.6907 6.216 29.904C6.152 30.1173 6.10933 30.2773 6.088 30.384C6.06667 30.4907 6.024 30.64 5.96 30.832C5.91733 31.0027 5.88533 31.1413 5.864 31.248C5.864 31.3333 5.85333 31.4507 5.832 31.6C5.81067 31.728 5.8 31.8347 5.8 31.92C5.8 32.0053 5.8 32.1013 5.8 32.208C5.82133 32.3147 5.85333 32.4 5.896 32.464C5.93867 32.528 5.98133 32.592 6.024 32.656C6.42933 32.9973 7.05867 33.1787 7.912 33.2C8.76533 33.2 9.62933 33.104 10.504 32.912C11.3787 32.72 12.3173 32.56 13.32 32.432C14.344 32.304 15.144 32.304 15.72 32.432C16.488 32.5813 17.064 32.9227 17.448 33.456C17.8533 33.968 18.0453 34.5013 18.024 35.056C18.0027 35.6107 17.8427 36.1333 17.544 36.624C17.2453 37.0933 16.8613 37.3813 16.392 37.488ZM33.025 31.76C32.769 34.0427 31.681 35.184 29.761 35.184C28.929 35.184 28.193 34.8747 27.553 34.256C26.913 33.616 26.6143 32.784 26.657 31.76C26.6783 30.7147 26.945 29.1467 27.457 27.056C27.969 24.944 28.225 23.856 28.225 23.792C28.2677 23.6 28.2997 23.408 28.321 23.216C28.3423 23.0027 28.353 22.8213 28.353 22.672C28.3743 22.5013 28.385 22.2987 28.385 22.064C28.385 21.8293 28.385 21.648 28.385 21.52C28.385 21.392 28.3743 21.1893 28.353 20.912C28.3317 20.6133 28.3103 20.4107 28.289 20.304C28.289 20.1973 28.2677 19.9733 28.225 19.632C28.1823 19.2693 28.161 19.0453 28.161 18.96C28.161 18.8747 28.129 18.6293 28.065 18.224C28.0223 17.7973 27.9903 17.5413 27.969 17.456C27.8197 16.1973 27.937 15.152 28.321 14.32C28.705 13.488 29.3237 12.944 30.177 12.688C31.777 12.2187 32.9503 12.4107 33.697 13.264C34.4437 14.096 34.561 15.2373 34.049 16.688C33.985 16.88 33.7823 17.4027 33.441 18.256C33.121 19.088 32.8757 19.7813 32.705 20.336C32.5557 20.8907 32.4597 21.424 32.417 21.936C32.3317 22.8533 32.4383 24.4853 32.737 26.832C33.0357 29.1573 33.1317 30.8 33.025 31.76ZM40.9305 19.696C40.2478 20.6347 39.8105 21.7973 39.6185 23.184C39.4265 24.5707 39.5652 25.7333 40.0345 26.672C40.4185 27.4613 40.9412 28.048 41.6025 28.432C42.2638 28.816 42.9145 28.9867 43.5545 28.944C44.2158 28.9013 44.8878 28.784 45.5705 28.592C46.4878 28.2933 47.0745 27.728 47.3305 26.896C47.5438 26.2133 47.4265 25.7547 46.9785 25.52C46.7225 25.3707 46.3918 25.36 45.9865 25.488C45.0478 25.7867 44.3118 25.9893 43.7785 26.096C42.8612 26.2453 42.1892 26 41.7625 25.36C41.3572 24.6987 41.3252 23.9733 41.6665 23.184C41.9865 22.4587 42.6372 21.8507 43.6185 21.36C44.3865 20.976 45.1972 20.752 46.0505 20.688C46.9252 20.624 47.7572 20.7413 48.5465 21.04C49.8478 21.5947 50.8505 22.544 51.5545 23.888C52.2585 25.232 52.4078 26.6507 52.0025 28.144C50.8932 32.3467 48.3972 34.672 44.5145 35.12C42.2745 35.376 40.2905 34.8533 38.5625 33.552C36.8558 32.2293 35.7252 30.3093 35.1705 27.792C34.7438 25.8293 34.7438 23.7813 35.1705 21.648C35.6185 19.4933 36.4398 17.6053 37.6345 15.984C38.8292 14.3627 40.2052 13.328 41.7625 12.88C42.4878 12.688 43.2772 12.5707 44.1305 12.528C44.9838 12.4853 45.8265 12.624 46.6585 12.944C47.5118 13.2427 48.0558 13.7333 48.2905 14.416C48.5038 15.0987 48.4292 15.8347 48.0665 16.624C47.7252 17.4133 47.1492 17.84 46.3385 17.904C45.6132 17.9467 45.0585 18 44.6745 18.064C44.2905 18.1067 43.8212 18.192 43.2665 18.32C42.7118 18.4267 42.2425 18.5973 41.8585 18.832C41.4958 19.0667 41.1865 19.3547 40.9305 19.696ZM58.9 31.76C58.644 34.0427 57.556 35.184 55.636 35.184C54.804 35.184 54.068 34.8747 53.428 34.256C52.788 33.616 52.4893 32.784 52.532 31.76C52.5533 30.7147 52.82 29.1467 53.332 27.056C53.844 24.944 54.1 23.856 54.1 23.792C54.1427 23.6 54.1747 23.408 54.196 23.216C54.2173 23.0027 54.228 22.8213 54.228 22.672C54.2493 22.5013 54.26 22.2987 54.26 22.064C54.26 21.8293 54.26 21.648 54.26 21.52C54.26 21.392 54.2493 21.1893 54.228 20.912C54.2067 20.6133 54.1853 20.4107 54.164 20.304C54.164 20.1973 54.1427 19.9733 54.1 19.632C54.0573 19.2693 54.036 19.0453 54.036 18.96C54.036 18.8747 54.004 18.6293 53.94 18.224C53.8973 17.7973 53.8653 17.5413 53.844 17.456C53.6947 16.1973 53.812 15.152 54.196 14.32C54.58 13.488 55.1987 12.944 56.052 12.688C57.652 12.2187 58.8253 12.4107 59.572 13.264C60.3187 14.096 60.436 15.2373 59.924 16.688C59.86 16.88 59.6573 17.4027 59.316 18.256C58.996 19.088 58.7507 19.7813 58.58 20.336C58.4307 20.8907 58.3347 21.424 58.292 21.936C58.2067 22.8533 58.3133 24.4853 58.612 26.832C58.9107 29.1573 59.0067 30.8 58.9 31.76Z" fill="url(#paint0_linear_503_2)"/>
<path d="M72.2316 18.2408C72.4502 17.1946 71.7611 16.3863 71.2389 15.5205C70.9438 15.0433 70.6488 14.5661 70.3537 14.0889C71.1517 13.478 71.9835 12.9115 72.7866 12.2615C74.0721 11.2774 72.5789 9.32692 71.2595 10.2667C70.4668 10.8385 69.6688 11.4493 68.9101 12.0654C68.0173 10.9911 66.9629 9.93518 65.6687 9.48459C64.7947 9.16942 63.9448 10.1716 64.5609 10.9304C65.3075 11.9056 66.1479 12.7738 66.8997 13.7099C65.6481 14.7384 64.1462 15.8531 63.3565 17.3013C62.9943 17.9302 63.7928 18.5141 64.3379 18.3077C65.762 17.78 67.0291 16.6341 68.2312 15.6787C68.521 16.1951 68.8109 16.7114 69.0616 17.2226C69.1869 17.4781 69.6309 18.3335 69.6361 18.2944C70.6465 19.9816 72.0442 19.0522 72.2316 18.2408Z" fill="#E81CFF"/>
<path d="M87.0299 12.3607C86.2371 12.9325 85.4392 13.5433 84.6805 14.1594C83.7877 13.0851 82.7333 12.0292 81.4391 11.5786C80.5651 11.2634 79.7152 12.2656 80.3312 13.0244C81.0778 13.9996 81.9183 14.8678 82.6701 15.8039C81.4185 16.8324 79.9165 17.9471 79.1269 19.3953C78.7647 20.0242 79.5632 20.6081 80.1083 20.4017C81.5323 19.874 82.7995 18.7281 84.0016 17.7727C84.2914 18.289 84.5813 18.8054 84.832 19.3166C86.0568 21.7889 87.8146 21.1462 88.002 20.3348C88.2206 19.2886 87.5314 18.4803 87.0092 17.6145C86.7142 17.1373 86.4192 16.6601 86.1241 16.1829C86.922 15.572 87.7539 15.0055 88.557 14.3555C89.8034 13.3662 88.3102 11.4157 87.0299 12.3607Z" fill="#E81CFF"/>
<path d="M77.9394 28.0383C78.8325 29.71 78.8805 31.7473 77.3526 33.0576C75.9133 34.3001 73.2263 34.1425 71.7414 33.0294C70.4026 32.0154 70.3937 29.9832 70.8259 28.5274C71.5082 26.3879 72.9766 25.8263 75.0163 25.46C75.3006 25.4181 75.4648 25.0815 75.2612 24.8155C74.4962 23.6786 73.0276 23.6428 71.8591 24.0452C70.4403 24.5338 69.4079 25.7108 68.7904 27.0624C67.6309 29.4969 67.8205 32.8672 69.9606 34.7442C72.1686 36.7099 76.1965 36.966 78.5746 35.2508C81.1353 33.3608 81.6864 29.8101 80.2188 27.0667C79.4459 25.6897 77.1665 26.6614 77.9394 28.0383Z" fill="#E81CFF"/>
<path d="M77.0048 26.6797C77.4353 26.7369 77.7795 26.5437 78.0559 26.2618C78.0559 26.2618 78.0611 26.2227 78.1002 26.2278C78.3374 25.9408 78.3998 25.4712 78.2457 25.1321C78.0968 24.754 77.7654 24.5507 77.3793 24.4596L77.3401 24.4544C76.954 24.3633 76.5263 24.5853 76.2891 24.8723C76.0467 25.1986 75.9895 25.629 76.1384 26.0072C76.2873 26.3854 76.6135 26.6278 77.0048 26.6797Z" fill="#E81CFF"/>
<defs>
<linearGradient id="paint0_linear_503_2" x1="61" y1="48" x2="-3.5499" y2="7.19808" gradientUnits="userSpaceOnUse">
<stop stop-color="#212121"/>
<stop offset="0.0001" stop-color="#E81CFF"/>
<stop offset="1" stop-color="#40C9FF"/>
</linearGradient>
</defs>
</svg>
