<svg width="50" height="49" viewBox="0 0 50 49" fill="none" xmlns="http://www.w3.org/2000/svg">
<path d="M8.33366 13.5417H39.5837C40.1566 13.5417 40.6253 13.073 40.6253 12.5V6.25004C40.6253 5.67712 40.1566 5.20837 39.5837 5.20837H8.33366C7.76074 5.20837 7.29199 5.67712 7.29199 6.25004V12.5C7.29199 13.073 7.76074 13.5417 8.33366 13.5417ZM9.37533 7.29171H38.542V11.4584H9.37533V7.29171Z" fill="white"/>
<path d="M8.33366 28.125H20.8337C21.4066 28.125 21.8753 27.6562 21.8753 27.0833V16.6667C21.8753 16.0937 21.4066 15.625 20.8337 15.625H8.33366C7.76074 15.625 7.29199 16.0937 7.29199 16.6667V27.0833C7.29199 27.6562 7.76074 28.125 8.33366 28.125ZM9.37533 17.7083H19.792V26.0417H9.37533V17.7083Z" fill="white"/>
<path d="M47.9167 0H2.08333C0.9375 0 0 0.9375 0 2.08333V36.4583C0 37.6042 0.9375 38.5417 2.08333 38.5417H18.7917L18.2917 41.8542C18.2187 42.3333 17.6354 42.7083 16.9479 42.7083C14.6042 42.7083 12.5625 44.0729 11.9687 46.0417L11.5 47.625C11.4063 47.9375 11.4688 48.2812 11.6667 48.5417C11.8646 48.8021 12.1771 48.9583 12.5 48.9583H37.5C37.8333 48.9583 38.1354 48.8021 38.3333 48.5417C38.5312 48.2812 38.5937 47.9375 38.5 47.625L38.0208 46.0417C37.4375 44.0833 35.3854 42.7083 33.0417 42.7083C32.3646 42.7083 31.7708 42.3333 31.6979 41.8542L31.1979 38.5417H47.9167C49.0625 38.5417 50 37.6042 50 36.4583V2.08333C50 0.9375 49.0625 0 47.9167 0ZM33.0521 44.7917C34.4583 44.7917 35.7083 45.5729 36.0312 46.6354L36.1042 46.875H13.8958L13.9687 46.6354C14.2917 45.5625 15.5417 44.7917 16.9479 44.7917C18.6562 44.7917 20.125 43.6562 20.3437 42.1667L20.8854 38.5417H29.0937L29.6354 42.1667C29.875 43.6562 31.3333 44.7917 33.0521 44.7917ZM47.9167 36.4583H30H20H2.08333V32.2917H47.9167V36.4583ZM47.9167 30.2083H2.08333V2.08333H47.9167V30.2083Z" fill="white"/>
<path d="M38.5413 16.6666H28.1247C27.5518 16.6666 27.083 17.1354 27.083 17.7083C27.083 18.2812 27.5518 18.75 28.1247 18.75H38.5413C39.1143 18.75 39.583 18.2812 39.583 17.7083C39.583 17.1354 39.1143 16.6666 38.5413 16.6666Z" fill="white"/>
<path d="M38.5413 20.8334H28.1247C27.5518 20.8334 27.083 21.3021 27.083 21.875C27.083 22.448 27.5518 22.9167 28.1247 22.9167H38.5413C39.1143 22.9167 39.583 22.448 39.583 21.875C39.583 21.3021 39.1143 20.8334 38.5413 20.8334Z" fill="white"/>
<path d="M38.5413 25H28.1247C27.5518 25 27.083 25.4687 27.083 26.0417C27.083 26.6146 27.5518 27.0833 28.1247 27.0833H38.5413C39.1143 27.0833 39.583 26.6146 39.583 26.0417C39.583 25.4687 39.1143 25 38.5413 25Z" fill="white"/>
</svg>
