<svg width="50" height="46" viewBox="0 0 50 46" fill="none" xmlns="http://www.w3.org/2000/svg">
<path d="M31.5625 16.9167L29.5 17.6354L28.3021 17.1354L27.3542 15.1771C27.1771 14.8229 26.8125 14.5938 26.4167 14.5938H23.5833C23.1875 14.5938 22.8229 14.8229 22.6458 15.1771L21.6979 17.1354L20.5 17.6354L18.4375 16.9167C18.0625 16.7812 17.6458 16.8854 17.3542 17.1667L15.3542 19.1667C15.0729 19.4479 14.9792 19.8646 15.1042 20.25L15.8229 22.3125L15.3229 23.5104L13.3646 24.4583C13 24.6354 12.7812 25 12.7812 25.3958V28.2292C12.7812 28.625 13.0104 28.9896 13.3646 29.1667L15.3229 30.1146L15.8229 31.3125L15.1042 33.375C14.9687 33.75 15.0729 34.1667 15.3542 34.4583L17.3542 36.4583C17.6354 36.7396 18.0521 36.8333 18.4375 36.7083L20.5 35.9896L21.6979 36.4896L22.6458 38.4479C22.8229 38.8021 23.1875 39.0313 23.5833 39.0313H26.4167C26.8125 39.0313 27.1771 38.8021 27.3542 38.4479L28.3021 36.4896L29.5 35.9896L31.5625 36.7083C31.9375 36.8333 32.3542 36.7396 32.6458 36.4583L34.6458 34.4583C34.9271 34.1771 35.0208 33.7604 34.8958 33.375L34.1771 31.3125L34.6771 30.1146L36.6354 29.1667C37 28.9896 37.2188 28.625 37.2188 28.2292V25.3958C37.2188 25 36.9896 24.6354 36.6354 24.4583L34.6771 23.5104L34.1771 22.3125L34.8958 20.25C35.0313 19.875 34.9271 19.4479 34.6458 19.1667L32.6458 17.1667C32.3646 16.875 31.9375 16.7812 31.5625 16.9167ZM32.1042 22.7292L32.9063 24.6667C33 24.9063 33.1875 25.0938 33.4167 25.2083L35.1458 26.0417V27.5729L33.4167 28.4167C33.1875 28.5312 33.0104 28.7188 32.9063 28.9583L32.1042 30.8958C32.0104 31.1354 32 31.3958 32.0833 31.6354L32.7188 33.4479L31.6354 34.5313L29.8125 33.8958C29.5729 33.8125 29.3125 33.8229 29.0729 33.9167L27.1354 34.7188C26.8958 34.8125 26.7083 35 26.5938 35.2292L25.7604 36.9583H24.2396L23.4062 35.2292C23.2917 35 23.1042 34.8229 22.8646 34.7188L20.9271 33.9167C20.6875 33.8125 20.4271 33.8125 20.1875 33.8958L18.3646 34.5313L17.2917 33.4375L17.9271 31.625C18.0104 31.3854 18 31.125 17.9063 30.8854L17.1042 28.9479C17.0104 28.7083 16.8229 28.5208 16.5938 28.4063L14.8646 27.5625V26.0417L16.5938 25.2083C16.8229 25.0938 17 24.9063 17.1042 24.6667L17.9063 22.7292C18 22.4896 18.0104 22.2292 17.9271 21.9896L17.2917 20.1771L18.375 19.0938L20.1979 19.7292C20.4375 19.8125 20.6979 19.8021 20.9375 19.7083L22.875 18.9062C23.1146 18.8125 23.3021 18.625 23.4167 18.3958L24.25 16.6667H25.7708L26.6042 18.3958C26.7188 18.625 26.9063 18.8021 27.1458 18.9062L29.0833 19.7083C29.3229 19.8021 29.5833 19.8125 29.8229 19.7292L31.6458 19.0938L32.7292 20.1771L32.0938 21.9896C31.9896 22.2396 32 22.5 32.1042 22.7292Z" fill="white"/>
<path d="M24.9997 20.8334C21.708 20.8334 19.0205 23.5105 19.0205 26.8125C19.0205 30.1042 21.6976 32.7813 24.9997 32.7813C28.3018 32.7813 30.9788 30.1042 30.9788 26.8125C30.9788 23.5105 28.2913 20.8334 24.9997 20.8334ZM24.9997 30.698C22.8538 30.698 21.1038 28.948 21.1038 26.8125C21.1038 24.6771 22.8538 22.9167 24.9997 22.9167C27.1455 22.9167 28.8955 24.6667 28.8955 26.8125C28.8955 28.9584 27.1455 30.698 24.9997 30.698Z" fill="white"/>
<path d="M46.875 0H3.125C1.40625 0 0 1.40625 0 3.125V42.7083C0 44.4271 1.40625 45.8333 3.125 45.8333H46.875C48.5937 45.8333 50 44.4271 50 42.7083V3.125C50 1.40625 48.5937 0 46.875 0ZM47.9167 42.7083C47.9167 43.2812 47.4479 43.75 46.875 43.75H3.125C2.55208 43.75 2.08333 43.2812 2.08333 42.7083V11.4583H17.7083C18.1042 11.4583 18.4583 11.2396 18.6354 10.8854L20.4375 7.29167H30.6042L32.3958 10.8854C32.5833 11.2396 32.9375 11.4583 33.3333 11.4583H47.9167V42.7083ZM47.9167 9.375H33.9792L32.1875 5.78125C32 5.42708 31.6458 5.20833 31.25 5.20833H19.7917C19.3958 5.20833 19.0417 5.42708 18.8646 5.78125L17.0625 9.375H2.08333V3.125C2.08333 2.55208 2.55208 2.08333 3.125 2.08333H46.875C47.4479 2.08333 47.9167 2.55208 47.9167 3.125V9.375Z" fill="white"/>
<path d="M14.5833 6.25H13.5417C12.9687 6.25 12.5 6.71875 12.5 7.29167C12.5 7.86458 12.9687 8.33333 13.5417 8.33333H14.5833C15.1562 8.33333 15.625 7.86458 15.625 7.29167C15.625 6.71875 15.1562 6.25 14.5833 6.25Z" fill="white"/>
<path d="M10.4163 6.25H9.37467C8.80176 6.25 8.33301 6.71875 8.33301 7.29167C8.33301 7.86458 8.80176 8.33333 9.37467 8.33333H10.4163C10.9893 8.33333 11.458 7.86458 11.458 7.29167C11.458 6.71875 10.9893 6.25 10.4163 6.25Z" fill="white"/>
<path d="M6.25033 6.25H5.20866C4.63574 6.25 4.16699 6.71875 4.16699 7.29167C4.16699 7.86458 4.63574 8.33333 5.20866 8.33333H6.25033C6.82324 8.33333 7.29199 7.86458 7.29199 7.29167C7.29199 6.71875 6.82324 6.25 6.25033 6.25Z" fill="white"/>
</svg>
