<svg width="50" height="50" viewBox="0 0 50 50" fill="none" xmlns="http://www.w3.org/2000/svg">
<path d="M46.875 0H3.125C1.40625 0 0 1.40625 0 3.125V46.875C0 48.5937 1.40625 50 3.125 50H46.875C48.5937 50 50 48.5937 50 46.875V3.125C50 1.40625 48.5937 0 46.875 0ZM47.9167 46.875C47.9167 47.4479 47.4479 47.9167 46.875 47.9167H3.125C2.55208 47.9167 2.08333 47.4479 2.08333 46.875V10.4167H19.7917C19.9271 10.4167 20.0625 10.3854 20.1875 10.3333C20.3125 10.2812 20.4271 10.2083 20.5312 10.1042L23.3437 7.29167H47.9167V46.875ZM47.9167 5.20833H22.9167C22.6354 5.20833 22.375 5.32292 22.1771 5.51042L19.3646 8.33333H2.08333V3.125C2.08333 2.55208 2.55208 2.08333 3.125 2.08333H46.875C47.4479 2.08333 47.9167 2.55208 47.9167 3.125V5.20833Z" fill="white"/>
<path d="M17.708 4.16663H15.6247C15.0518 4.16663 14.583 4.63538 14.583 5.20829C14.583 5.78121 15.0518 6.24996 15.6247 6.24996H17.708C18.2809 6.24996 18.7497 5.78121 18.7497 5.20829C18.7497 4.63538 18.2809 4.16663 17.708 4.16663Z" fill="white"/>
<path d="M12.5 4.16663H10.4167C9.84375 4.16663 9.375 4.63538 9.375 5.20829C9.375 5.78121 9.84375 6.24996 10.4167 6.24996H12.5C13.0729 6.24996 13.5417 5.78121 13.5417 5.20829C13.5417 4.63538 13.0729 4.16663 12.5 4.16663Z" fill="white"/>
<path d="M7.29199 4.16663H5.20866C4.63574 4.16663 4.16699 4.63538 4.16699 5.20829C4.16699 5.78121 4.63574 6.24996 5.20866 6.24996H7.29199C7.86491 6.24996 8.33366 5.78121 8.33366 5.20829C8.33366 4.63538 7.86491 4.16663 7.29199 4.16663Z" fill="white"/>
<path d="M15.6247 12.5C9.88509 12.5 5.20801 17.1771 5.20801 22.9167C5.20801 28.6563 9.88509 33.3333 15.6247 33.3333C21.3643 33.3333 26.0413 28.6563 26.0413 22.9167C26.0413 17.1771 21.3643 12.5 15.6247 12.5ZM15.6247 31.25C14.1143 31.25 12.6872 30.8333 11.4684 30.125C11.5101 27.8646 13.3538 26.0417 15.6247 26.0417C16.7393 26.0417 17.7809 26.4792 18.5726 27.25C19.3434 28.0208 19.7601 29.0417 19.7809 30.125C18.5622 30.8333 17.1351 31.25 15.6247 31.25ZM13.5413 21.875C13.5413 20.7292 14.4788 19.7917 15.6247 19.7917C16.7705 19.7917 17.708 20.7292 17.708 21.875C17.708 23.0208 16.7705 23.9583 15.6247 23.9583C14.4788 23.9583 13.5413 23.0208 13.5413 21.875ZM21.6663 28.6354C21.3955 27.5729 20.8434 26.5833 20.0413 25.7813C19.6143 25.3646 19.1455 25.0104 18.6351 24.7396C19.3538 23.9896 19.7913 22.9792 19.7913 21.875C19.7913 19.5729 17.9268 17.7083 15.6247 17.7083C13.3226 17.7083 11.458 19.5729 11.458 21.875C11.458 22.9896 11.8955 23.9896 12.6143 24.7396C11.1351 25.5625 10.0205 26.9688 9.58301 28.6458C8.16634 27.1458 7.29134 25.1354 7.29134 22.9167C7.29134 18.3229 11.0309 14.5833 15.6247 14.5833C20.2184 14.5833 23.958 18.3229 23.958 22.9167C23.958 25.1354 23.083 27.1458 21.6663 28.6354Z" fill="white"/>
<path d="M42.7083 31.25H26.0417C25.4687 31.25 25 31.7187 25 32.2917V36.4583C25 37.0312 25.4687 37.5 26.0417 37.5H42.7083C43.2812 37.5 43.75 37.0312 43.75 36.4583V32.2917C43.75 31.7187 43.2812 31.25 42.7083 31.25ZM41.6667 35.4167H27.0833V33.3333H41.6667V35.4167Z" fill="white"/>
<path d="M42.7083 39.5834H26.0417C25.4687 39.5834 25 40.0521 25 40.625V44.7917C25 45.3646 25.4687 45.8334 26.0417 45.8334H42.7083C43.2812 45.8334 43.75 45.3646 43.75 44.7917V40.625C43.75 40.0521 43.2812 39.5834 42.7083 39.5834ZM41.6667 43.75H27.0833V41.6667H41.6667V43.75Z" fill="white"/>
<path d="M30.2087 15.625H42.7087C43.2816 15.625 43.7503 15.1562 43.7503 14.5833C43.7503 14.0104 43.2816 13.5416 42.7087 13.5416H30.2087C29.6357 13.5416 29.167 14.0104 29.167 14.5833C29.167 15.1562 29.6357 15.625 30.2087 15.625Z" fill="white"/>
<path d="M30.2087 20.8333H42.7087C43.2816 20.8333 43.7503 20.3646 43.7503 19.7917C43.7503 19.2187 43.2816 18.75 42.7087 18.75H30.2087C29.6357 18.75 29.167 19.2187 29.167 19.7917C29.167 20.3646 29.6357 20.8333 30.2087 20.8333Z" fill="white"/>
<path d="M30.2087 26.0417H42.7087C43.2816 26.0417 43.7503 25.573 43.7503 25C43.7503 24.4271 43.2816 23.9584 42.7087 23.9584H30.2087C29.6357 23.9584 29.167 24.4271 29.167 25C29.167 25.573 29.6357 26.0417 30.2087 26.0417Z" fill="white"/>
</svg>
